<svg height="50" viewBox="0 0 53 50" width="53" xmlns="http://www.w3.org/2000/svg"><g fill="none" fill-rule="evenodd" transform="translate(1 1)"><path d="m4.12.375c-.92203148-.50551324-2.05679635-.41178308-2.88338823.23816427-.82659188.64994734-1.18535904 1.73057807-.91161177 2.74583573l1.46 5.405c.64701729 2.3965368 2.8206584 4.0615057 5.303 4.0620001 1.05405165.0002652 2.06500827-.4183376 2.81033537-1.1636647.74532713-.7453271 1.16392993-1.75628375 1.16366473-2.8103354v-1.412c0-2.00798669-1.09445668-3.85634095-2.8550001-4.822l-4.086-2.243zm32.46 0c.922093-.50615896 2.0573362-.41275399 2.8842979.23731278.8269616.65006677 1.1858024 1.73114728.9117021 2.74668722l-1.459 5.405c-.6471142 2.3968955-2.8212868 4.062-5.304 4.062-1.0538784 0-2.0645781-.41872-2.8096889-1.1640183-.7451107-.7452983-1.1635764-1.75610334-1.1633112-2.8099817v-1.412c-.0001135-2.00777457 1.0938429-3.85607791 2.8540001-4.822l4.087-2.242z" fill="#ffc6d8" fill-rule="nonzero" stroke="#262124" stroke-width="2"/><rect fill="#ffc6d8" fill-rule="nonzero" height="38.205" rx="16.583" stroke="#262124" stroke-width="2" width="33.166" x="3.768" y="3.769"/><g stroke="#262124" transform="translate(15 19)"><path d="m5.084.103h2.57c2.13 0 3.401 1.687 2.838 3.769-.562 2.081-2.745 3.769-4.875 3.769h-2.57c-2.13 0-3.4-1.688-2.838-3.77.563-2.08 2.745-3.768 4.875-3.768z" stroke-width="2"/><path d="m4.185 3.115c-.187 0-.417.182-.47.382l-.265 1.005c-.027.104-.011.126.071.126.187 0 .417-.182.47-.381l.265-1.005c.027-.105.011-.127-.071-.127zm3.014 0c-.187 0-.417.182-.47.382l-.265 1.005c-.027.104-.011.126.071.126.187 0 .417-.182.47-.381l.265-1.005c.028-.105.012-.127-.071-.127z"/></g><g fill-rule="nonzero"><path d="m30.9 34.18v9.191c0 2.557-1.799 4.629-4.018 4.629-2.22 0-4.02-2.072-4.02-4.629v-5.885m-13.312-3.306v9.191c0 2.557 1.8 4.629 4.019 4.629 2.22 0 4.019-2.072 4.019-4.629v-5.885" fill="#ffc6d8"/><path d="m29.9 34.18c0-.5522847.4477153-1 1-1s1 .4477153 1 1v9.191c0 3.08-2.213 5.629-5.018 5.629-2.806 0-5.02-2.55-5.02-5.629v-5.885c0-.5522847.4477153-1 1-1s1 .4477153 1 1v5.885c0 2.033 1.386 3.629 3.02 3.629 1.633 0 3.018-1.596 3.018-3.629zm-19.35 0c0-.5522847-.4477153-1-1-1-.55228475 0-1 .4477153-1 1v9.191c0 3.08 2.213 5.629 5.019 5.629 2.805 0 5.019-2.55 5.019-5.629v-5.885c0-.5522847-.4477153-1-1-1s-1 .4477153-1 1v5.885c0 2.033-1.386 3.629-3.02 3.629-1.633 0-3.018-1.596-3.018-3.629z" fill="#262124"/><rect fill="#262124" height="4.021" rx="1" width="2.009" x="12.564" y="43.979"/><rect fill="#262124" height="4.021" rx="1" width="2.009" x="25.877" y="43.979"/><path d="m11.744 13.698.014-.005c.7781558-.2830137 1.6384504.1180394 1.922.896l.349.96c.2829159.7784396-.1186426 1.6388581-.897 1.922l-.013.005c-.3738209.1362231-.7864478.1183498-1.1470894-.049687-.3606416-.1680369-.6397494-.4724696-.7759106-.846313l-.348-.96c-.2830137-.7781558.1180394-1.6384504.896-1.922zm17.2-.005.013.005c.3738434.1361612.6782761.415269.846313.7759106.1680368.3606416.1859101.7732685.049687 1.1470894l-.348.959c-.2831419.7783574-1.1435604 1.1799159-1.922.897l-.014-.006c-.7779606-.2835496-1.1790137-1.1438442-.896-1.922l.348-.96c.2835496-.7779606 1.1438442-1.1790137 1.922-.896z" fill="#262124"/></g><path d="m12.815 29.684c-.753 3.518 5.024 4.272 7.577 1.76" stroke="#262124" stroke-linecap="round" stroke-width="2" transform="matrix(-1 0 0 -1 33.139874 62.60695)"/><g stroke="#262124" stroke-linecap="round" stroke-linejoin="round" stroke-width="2" transform="translate(37 22)"><path d="m6.958 1.04c-1.283.468-2.315 1.278-2.989 2.244-.833 1.194-1.12 2.626-.643 3.935.476 1.31 1.188 3.266 3.077 2.58 1.889-.687 1.176-2.646.7-3.955-.478-1.31-1.616-2.224-3.024-2.602-1.137-.306-2.45-.262-3.73.204"/><path d="m13.068 7.373c.833-1.194 1.12-2.625.643-3.934-.477-1.31-1.615-2.224-3.023-2.603-1.137-.305-2.45-.262-3.73.205"/></g></g></svg>