<svg width="53" height="50" xmlns="http://www.w3.org/2000/svg"><g fill="none" fill-rule="evenodd"><path d="M5.12 1.375a2.624 2.624 0 0 0-3.795 2.984l1.46 5.405a5.494 5.494 0 0 0 5.303 4.062 3.973 3.973 0 0 0 3.974-3.974V8.44a5.5 5.5 0 0 0-2.855-4.822L5.121 1.375zM37.58 1.375a2.624 2.624 0 0 1 3.796 2.984l-1.459 5.405a5.494 5.494 0 0 1-5.304 4.062 3.973 3.973 0 0 1-3.973-3.974V8.44a5.5 5.5 0 0 1 2.854-4.822l4.087-2.242z" stroke="#262124" stroke-width="2" fill="#FFC6D8"/><rect stroke="#262124" stroke-width="2" fill="#FFC6D8" x="4.768" y="4.769" width="33.166" height="38.205" rx="16.583"/><g stroke="#262124"><path d="M21.084 20.103h2.57c2.13 0 3.401 1.687 2.838 3.769-.562 2.081-2.745 3.769-4.875 3.769h-2.57c-2.13 0-3.4-1.688-2.838-3.77.563-2.08 2.745-3.768 4.875-3.768z" stroke-width="2"/><path d="M20.185 23.115c-.187 0-.417.182-.47.382l-.265 1.005c-.027.104-.011.126.071.126.187 0 .417-.182.47-.381l.265-1.005c.027-.105.011-.127-.071-.127zM23.199 23.115c-.187 0-.417.182-.47.382l-.265 1.005c-.027.104-.011.126.071.126.187 0 .417-.182.47-.381l.265-1.005c.028-.105.012-.127-.071-.127z"/></g><path d="M31.9 35.18v9.191c0 2.557-1.799 4.629-4.018 4.629-2.22 0-4.02-2.072-4.02-4.629v-5.885M10.55 35.18v9.191c0 2.557 1.8 4.629 4.019 4.629 2.22 0 4.019-2.072 4.019-4.629v-5.885" fill="#FFC6D8"/><path d="M30.9 35.18a1 1 0 1 1 2 0v9.191c0 3.08-2.213 5.629-5.018 5.629-2.806 0-5.02-2.55-5.02-5.629v-5.885a1 1 0 1 1 2 0v5.885c0 2.033 1.386 3.629 3.02 3.629 1.633 0 3.018-1.596 3.018-3.629V35.18zM11.55 35.18a1 1 0 1 0-2 0v9.191c0 3.08 2.213 5.629 5.019 5.629 2.805 0 5.019-2.55 5.019-5.629v-5.885a1 1 0 1 0-2 0v5.885c0 2.033-1.386 3.629-3.02 3.629-1.633 0-3.018-1.596-3.018-3.629V35.18z" fill="#262124" fill-rule="nonzero"/><rect fill="#262124" x="13.564" y="44.979" width="2.009" height="4.021" rx="1"/><rect fill="#262124" x="26.877" y="44.979" width="2.009" height="4.021" rx="1"/><path d="M12.744 14.698l.014-.005a1.5 1.5 0 0 1 1.922.896l.349.96a1.5 1.5 0 0 1-.897 1.922l-.013.005a1.5 1.5 0 0 1-1.923-.896l-.348-.96a1.5 1.5 0 0 1 .896-1.922zM29.944 14.693l.013.005a1.5 1.5 0 0 1 .896 1.923l-.348.959a1.5 1.5 0 0 1-1.922.897l-.014-.006a1.5 1.5 0 0 1-.896-1.922l.348-.96a1.5 1.5 0 0 1 1.922-.896z" fill="#262124"/><path d="M13.815 30.684c-.753 3.518 5.024 4.272 7.577 1.76" stroke="#262124" stroke-width="2" stroke-linecap="round"/><g stroke="#262124" stroke-linecap="round" stroke-linejoin="round" stroke-width="2"><path d="M44.958 24.04c-1.283.468-2.315 1.278-2.989 2.244-.833 1.194-1.12 2.626-.643 3.935.476 1.31 1.188 3.266 3.077 2.58 1.889-.687 1.176-2.646.7-3.955-.478-1.31-1.616-2.224-3.024-2.602-1.137-.306-2.45-.262-3.73.204"/><path d="M51.068 30.373c.833-1.194 1.12-2.625.643-3.934-.477-1.31-1.615-2.224-3.023-2.603-1.137-.305-2.45-.262-3.73.205"/></g></g></svg>